<?xml version="1.0" standalone="no"?>
<!DOCTYPE svg PUBLIC "-//W3C//DTD SVG 20010904//EN"
 "http://www.w3.org/TR/2001/REC-SVG-20010904/DTD/svg10.dtd">
<svg version="1.0" xmlns="http://www.w3.org/2000/svg"
 width="478.000000pt" height="478.000000pt" viewBox="0 0 478.000000 478.000000"
 preserveAspectRatio="xMidYMid meet">
<metadata>
Created by potrace 1.14, written by Peter Selinger 2001-2017
</metadata>
<g transform="translate(0.000000,478.000000) scale(0.100000,-0.100000)"
fill="#000000" stroke="none">
<path d="M2417 4244 c-1 -1 -42 -4 -92 -8 -49 -3 -101 -8 -115 -11 -13 -3 -40
-7 -60 -10 -68 -10 -104 -19 -223 -52 -228 -64 -497 -208 -677 -364 -446 -384
-675 -887 -664 -1459 4 -184 12 -258 46 -395 90 -370 276 -677 573 -945 148
-134 248 -203 413 -285 188 -93 347 -145 589 -191 12 -2 54 -7 92 -10 l71 -7
0 346 c0 386 -3 407 -77 550 -67 127 -170 213 -349 287 -246 102 -353 165
-449 265 -89 93 -155 213 -189 344 -11 44 -13 285 -3 343 8 40 -13 106 -40
128 -20 15 -29 17 -53 8 -36 -12 -38 -16 -56 -81 -21 -79 -28 -159 -28 -302 1
-118 4 -139 33 -226 61 -187 216 -453 323 -555 29 -28 126 -110 216 -182 243
-197 260 -220 276 -370 3 -32 2 -33 -23 -27 -54 14 -174 68 -253 116 -246 148
-429 345 -553 594 -72 147 -108 256 -141 431 -11 58 -7 331 6 442 15 125 12
140 -34 157 -73 26 -119 -127 -121 -400 0 -184 20 -310 80 -490 107 -320 333
-614 619 -805 88 -59 233 -132 344 -175 39 -16 73 -33 73 -39 1 -6 3 -35 3
-63 2 -64 -1 -64 -106 -27 -265 96 -513 269 -713 499 -154 177 -295 464 -340
694 -8 42 -17 90 -21 106 -3 17 -7 118 -9 225 -4 270 20 402 112 619 120 286
364 574 637 754 287 188 606 285 936 285 166 0 243 -11 413 -59 433 -121 798
-404 1037 -803 93 -155 165 -351 186 -504 3 -26 8 -56 10 -67 6 -26 6 -374 1
-400 -3 -11 -8 -42 -11 -70 -21 -146 -93 -363 -164 -495 -166 -309 -450 -581
-755 -725 -102 -48 -237 -96 -249 -89 -9 6 -8 107 1 122 4 6 43 24 88 41 142
52 328 156 425 238 77 64 239 234 290 304 145 196 241 424 289 684 14 76 18
362 6 435 -28 173 -36 192 -87 205 -61 15 -78 -38 -56 -177 20 -125 12 -395
-14 -513 -42 -192 -129 -394 -217 -510 -5 -5 -21 -30 -37 -55 -49 -76 -243
-261 -343 -328 -141 -93 -328 -176 -343 -152 -18 30 24 164 68 215 19 23 143
131 212 185 217 171 312 280 419 481 98 184 141 322 146 469 5 133 -30 355
-60 380 -24 20 -76 7 -98 -22 -22 -30 -22 -24 -16 -283 3 -103 0 -131 -20
-195 -46 -149 -118 -260 -238 -369 -74 -67 -189 -129 -375 -201 -246 -95 -366
-226 -426 -462 -15 -62 -18 -122 -21 -402 l-3 -329 83 7 c336 30 685 164 953
369 345 262 589 615 691 1001 27 98 31 116 40 171 3 17 8 44 11 60 10 53 12
398 3 475 -13 121 -17 140 -44 242 -94 360 -253 630 -522 889 -339 325 -783
512 -1246 523 -43 1 -79 1 -80 0z"/>
<path d="M2295 3753 c-206 -38 -313 -71 -463 -144 -190 -92 -340 -212 -511
-409 -39 -45 -44 -88 -14 -122 28 -31 58 -22 109 35 89 96 193 195 251 240
167 128 406 228 635 267 82 14 103 34 94 85 -4 20 -12 38 -19 40 -22 8 -62 12
-82 8z"/>
<path d="M2530 3737 c-11 -10 -20 -29 -20 -42 0 -47 44 -68 195 -92 58 -9 236
-73 316 -113 166 -83 288 -180 438 -347 61 -68 79 -83 103 -83 31 0 67 32 68
61 0 27 -56 101 -152 199 -106 108 -154 148 -253 212 -160 103 -327 171 -510
207 -125 24 -158 24 -185 -2z"/>
<path d="M2102 3302 c9 -130 66 -211 191 -273 34 -17 77 -45 95 -62 28 -27 32
-29 33 -11 11 134 -20 229 -98 308 -40 41 -134 91 -192 102 l-34 7 5 -71z"/>
<path d="M2739 3355 c-171 -63 -236 -155 -254 -357 -3 -32 -2 -58 2 -58 4 0
21 13 38 29 16 16 63 46 103 67 41 21 89 55 107 75 43 48 75 135 75 204 0 61
-5 65 -71 40z"/>
<path d="M2081 2958 c4 -59 32 -140 66 -189 24 -34 157 -129 182 -129 4 0 26
-16 48 -35 23 -19 44 -35 47 -35 11 0 -2 130 -19 182 -35 112 -132 202 -252
233 -31 8 -61 15 -66 15 -5 0 -7 -19 -6 -42z"/>
<path d="M2785 2993 c-147 -33 -241 -117 -281 -248 -7 -25 -16 -78 -19 -118
l-6 -72 38 36 c21 20 75 56 121 79 55 28 94 57 117 84 36 44 72 139 77 201 3
41 -5 48 -47 38z"/>
<path d="M1472 2779 c-72 -27 -104 -330 -53 -498 38 -127 168 -287 288 -357
25 -15 129 -65 232 -111 213 -95 268 -130 353 -222 61 -67 139 -209 153 -280
7 -33 8 -31 35 48 64 186 179 316 350 393 30 14 107 47 170 74 167 70 245 118
325 200 82 85 127 155 162 255 24 70 25 82 20 224 -5 177 -23 247 -65 268 -35
17 -56 12 -77 -19 -17 -27 -18 -47 -11 -251 5 -158 -3 -206 -53 -308 -32 -64
-91 -130 -156 -174 -66 -45 -68 -46 -53 -22 7 12 16 21 20 21 17 0 89 118 109
178 31 91 33 239 5 271 -42 46 -81 12 -102 -89 -33 -159 -45 -197 -83 -268
-43 -78 -127 -164 -220 -222 -226 -141 -248 -159 -326 -254 l-39 -48 -26 33
c-62 84 -139 148 -270 224 -240 142 -329 260 -370 495 -16 90 -25 119 -41 133
-36 29 -87 1 -90 -50 -1 -13 -2 -38 -3 -55 -6 -107 48 -246 130 -338 51 -56
38 -55 -41 5 -90 69 -139 139 -175 246 -16 49 -20 87 -19 178 1 64 4 141 8
171 3 30 3 71 -2 91 -10 44 -50 71 -85 58z"/>
<path d="M2076 2614 c-7 -19 30 -161 50 -193 33 -52 71 -84 154 -129 47 -25
98 -59 113 -74 16 -15 31 -28 34 -28 6 0 -3 115 -11 157 -14 70 -73 159 -134
204 -65 48 -196 88 -206 63z"/>
<path d="M2755 2610 c-80 -22 -113 -40 -164 -91 -66 -67 -94 -133 -106 -252
-7 -73 0 -84 30 -49 12 15 64 49 114 75 56 30 103 63 125 88 48 57 101 231 73
242 -7 2 -39 -3 -72 -13z"/>
<path d="M2083 2196 c6 -63 41 -146 80 -192 15 -18 74 -59 132 -93 58 -34 108
-68 112 -76 3 -8 9 -12 15 -9 15 9 0 137 -23 199 -41 110 -158 202 -278 220
l-44 6 6 -55z"/>
<path d="M2735 2233 c-102 -31 -190 -116 -226 -218 -18 -52 -35 -195 -23 -195
3 0 19 14 37 30 18 17 66 48 107 69 83 44 127 85 160 147 21 42 51 163 43 177
-6 10 -41 7 -98 -10z"/>
</g>
</svg>
